# xmcd
#
# Track frame offsets:
#	150
#	14647
#	27375
#	42647
#	60502
#	74617
#	90260
#	105697
#	125012
#	136370
#	154805
#	175292
#
# Disc length: 2712 seconds
#
# Revision: 0
# Processed by: cddbd v1.5.1PL2 Copyright (c) Steve Scherf et al.
# Submitted via: dBpowerAMP V4.0
#
DISCID=aa0a960c
DTITLE=Various Artist - Euro Sko - The Best of Roots and Boots
DYEAR=1900
DGENRE=Country
TTITLE0=Claudia Scott - Inseparable
TTITLE1=Billy Ray Cyrus - These Boots are Made For Walking
TTITLE2=Johnny Cash - A Backstage Pass
TTITLE3=Rodney Crowell - What Kind of Love
TTITLE4=Steinar Albrigtsen - I Just Wanna Fall in Love
TTITLE5=Eriksen - The Road to Glory
TTITLE6=Billy Ray Cyrus - Achy Breaky Heart
TTITLE7=Tom Pacheco - Robert og Ramona
TTITLE8=Peyton Place - Speeding
TTITLE9=Darden Smith - Loving Arms
TTITLE10=Willie Nelson and Bob Dylan - Heartland
TTITLE11=Henning Kvitnes - Postcards From Life
EXTD=
EXTT0=
EXTT1=
EXTT2=
EXTT3=
EXTT4=
EXTT5=
EXTT6=
EXTT7=
EXTT8=
EXTT9=
EXTT10=
EXTT11=
PLAYORDER=
